<svg width="342" height="342" viewBox="0 0 342 342" fill="none" xmlns="http://www.w3.org/2000/svg">
<g clip-path="url(#clip0_28_105)">
<g clip-path="url(#clip1_28_105)">
<path d="M0 170.572C0 76.3685 76.367 0 170.572 0C264.776 0 341.145 76.367 341.143 170.572C341.143 264.776 264.776 341.145 170.572 341.143C76.3685 341.143 0 264.776 0 170.572ZM170.572 328.863C257.994 328.863 328.863 257.994 328.863 170.572C328.863 83.1503 257.994 12.2815 170.572 12.2815C83.1503 12.2815 12.2815 83.1503 12.2815 170.572C12.2815 257.994 83.1503 328.863 170.572 328.863Z" fill="transparent"/>
<g clip-path="url(#clip2_28_105)">
<g clip-path="url(#clip3_28_105)">
<path d="M212.815 138.908C241.659 166.173 251.831 206.311 194.94 241.785C202.946 230.946 207.376 220.244 208.348 209.522C210.439 186.394 196.018 167.576 180.119 150.685C156.815 125.925 155.082 102.04 174.662 75.5201C170.627 110.4 192.669 119.864 212.815 138.908ZM150.195 266.719C163.795 238.011 166.197 222.068 132.166 189.876C122.92 181.129 115.779 172.217 110.811 163.294C104.474 177.447 99.4532 207.459 117.945 224.733C130.453 236.416 147.637 243.426 150.195 266.719ZM175.313 155.207C156.562 135.281 142.961 107.347 169.355 71.6008C97.8697 99.5151 93.7525 144.455 136.697 185.081C172.881 219.305 171.005 238.202 156.159 269.543C226.264 217.858 201.706 183.249 175.313 155.207Z" fill="#4B39EF"/>
</g>
</g>
</g>
</g>
<defs>
<clipPath id="clip0_28_105">
<rect width="341.144" height="341.144" fill="white"/>
</clipPath>
<clipPath id="clip1_28_105">
<rect width="341.144" height="341.144" fill="white"/>
</clipPath>
<clipPath id="clip2_28_105">
<rect width="131.043" height="197.942" fill="white" transform="translate(105.05 71.6008)"/>
</clipPath>
<clipPath id="clip3_28_105">
<rect width="131.043" height="197.942" fill="white" transform="translate(105.05 71.6008)"/>
</clipPath>
</defs>
</svg>
