<svg xmlns="http://www.w3.org/2000/svg" version="1.1" xmlns:xlink="http://www.w3.org/1999/xlink" xmlns:svgjs="http://svgjs.dev/svgjs" width="1440" height="560" preserveAspectRatio="none" viewBox="0 0 1440 560"><g mask="url(&quot;#SvgjsMask1531&quot;)" fill="none"><g mask="url(&quot;#SvgjsMask1533&quot;)"><path d="M1336.5 280.5L1303.5 247.5L1270.5 247.5L1237.5 247.5M1468.5 280.5L1435.5 280.5L1402.5 280.5L1369.5 280.5L1336.5 280.5L1303.5 280.5L1270.5 280.5L1237.5 280.5" stroke="url(&quot;#SvgjsRadialGradient1532&quot;)" stroke-width="5.5"></path><path d="M1229.25 280.5 a8.25 8.25 0 1 0 16.5 0 a8.25 8.25 0 1 0 -16.5 0zM1229.25 247.5 a8.25 8.25 0 1 0 16.5 0 a8.25 8.25 0 1 0 -16.5 0z" fill="url(&quot;#SvgjsRadialGradient1532&quot;)"></path><path d="M1105.5 214.5L1072.5 181.5L1039.5 181.5L1006.5 181.5M1171.5 181.5L1138.5 181.5L1105.5 181.5L1072.5 148.5L1039.5 115.5M1039.5 214.5L1006.5 247.5L973.5 247.5L940.5 247.5M1072.5 214.5L1039.5 247.5L1006.5 280.5M1468.5 247.5L1435.5 247.5L1402.5 247.5L1369.5 247.5L1336.5 214.5L1303.5 214.5L1270.5 181.5L1237.5 181.5L1204.5 181.5L1171.5 181.5L1138.5 214.5L1105.5 214.5L1072.5 214.5L1039.5 214.5L1006.5 214.5L973.5 214.5" stroke="url(&quot;#SvgjsRadialGradient1532&quot;)" stroke-width="5.5"></path><path d="M965.25 214.5 a8.25 8.25 0 1 0 16.5 0 a8.25 8.25 0 1 0 -16.5 0zM998.25 181.5 a8.25 8.25 0 1 0 16.5 0 a8.25 8.25 0 1 0 -16.5 0zM1031.25 115.5 a8.25 8.25 0 1 0 16.5 0 a8.25 8.25 0 1 0 -16.5 0zM932.25 247.5 a8.25 8.25 0 1 0 16.5 0 a8.25 8.25 0 1 0 -16.5 0zM998.25 280.5 a8.25 8.25 0 1 0 16.5 0 a8.25 8.25 0 1 0 -16.5 0z" fill="url(&quot;#SvgjsRadialGradient1532&quot;)"></path><path d="M973.5 346.5L940.5 346.5L907.5 346.5L874.5 346.5L841.5 346.5L808.5 346.5L775.5 346.5M874.5 313.5L841.5 280.5L808.5 280.5L775.5 280.5L742.5 280.5M1105.5 313.5L1072.5 313.5L1039.5 313.5M1138.5 313.5L1105.5 346.5M1237.5 313.5L1204.5 346.5L1171.5 346.5M1468.5 313.5L1435.5 313.5L1402.5 313.5L1369.5 313.5L1336.5 313.5L1303.5 313.5L1270.5 313.5L1237.5 313.5L1204.5 313.5L1171.5 313.5L1138.5 313.5L1105.5 313.5L1072.5 346.5L1039.5 346.5L1006.5 346.5L973.5 346.5L940.5 313.5L907.5 313.5L874.5 313.5L841.5 313.5" stroke="url(&quot;#SvgjsRadialGradient1532&quot;)" stroke-width="5.5"></path><path d="M833.25 313.5 a8.25 8.25 0 1 0 16.5 0 a8.25 8.25 0 1 0 -16.5 0zM767.25 346.5 a8.25 8.25 0 1 0 16.5 0 a8.25 8.25 0 1 0 -16.5 0zM734.25 280.5 a8.25 8.25 0 1 0 16.5 0 a8.25 8.25 0 1 0 -16.5 0zM1031.25 313.5 a8.25 8.25 0 1 0 16.5 0 a8.25 8.25 0 1 0 -16.5 0zM1097.25 346.5 a8.25 8.25 0 1 0 16.5 0 a8.25 8.25 0 1 0 -16.5 0zM1163.25 346.5 a8.25 8.25 0 1 0 16.5 0 a8.25 8.25 0 1 0 -16.5 0z" fill="url(&quot;#SvgjsRadialGradient1532&quot;)"></path><path d="M1468.5 214.5L1435.5 214.5L1402.5 214.5L1369.5 214.5L1336.5 181.5" stroke="url(&quot;#SvgjsRadialGradient1532&quot;)" stroke-width="5.5"></path><path d="M1328.25 181.5 a8.25 8.25 0 1 0 16.5 0 a8.25 8.25 0 1 0 -16.5 0z" fill="url(&quot;#SvgjsRadialGradient1532&quot;)"></path><path d="M1468.5 346.5L1435.5 346.5L1402.5 346.5L1369.5 346.5L1336.5 346.5L1303.5 346.5L1270.5 346.5" stroke="url(&quot;#SvgjsRadialGradient1532&quot;)" stroke-width="5.5"></path><path d="M1262.25 346.5 a8.25 8.25 0 1 0 16.5 0 a8.25 8.25 0 1 0 -16.5 0z" fill="url(&quot;#SvgjsRadialGradient1532&quot;)"></path><path d="M1105.5 82.5L1072.5 115.5M1402.5 181.5L1369.5 148.5L1336.5 115.5L1303.5 115.5L1270.5 82.5L1237.5 82.5M1237.5 115.5L1204.5 148.5M973.5 115.5L940.5 148.5L907.5 181.5L874.5 214.5L841.5 214.5M1468.5 181.5L1435.5 181.5L1402.5 181.5L1369.5 181.5L1336.5 148.5L1303.5 148.5L1270.5 115.5L1237.5 115.5L1204.5 115.5L1171.5 115.5L1138.5 115.5L1105.5 82.5L1072.5 82.5L1039.5 82.5L1006.5 115.5L973.5 115.5L940.5 115.5L907.5 115.5" stroke="url(&quot;#SvgjsRadialGradient1532&quot;)" stroke-width="5.5"></path><path d="M899.25 115.5 a8.25 8.25 0 1 0 16.5 0 a8.25 8.25 0 1 0 -16.5 0zM1064.25 115.5 a8.25 8.25 0 1 0 16.5 0 a8.25 8.25 0 1 0 -16.5 0zM1229.25 82.5 a8.25 8.25 0 1 0 16.5 0 a8.25 8.25 0 1 0 -16.5 0zM1196.25 148.5 a8.25 8.25 0 1 0 16.5 0 a8.25 8.25 0 1 0 -16.5 0zM833.25 214.5 a8.25 8.25 0 1 0 16.5 0 a8.25 8.25 0 1 0 -16.5 0z" fill="url(&quot;#SvgjsRadialGradient1532&quot;)"></path><path d="M709.5 379.5L676.5 346.5L643.5 346.5L610.5 313.5L577.5 313.5M346.5 478.5L313.5 445.5M643.5 412.5L610.5 412.5M808.5 379.5L775.5 412.5L742.5 412.5L709.5 412.5L676.5 412.5L643.5 445.5L610.5 478.5M379.5 478.5L346.5 445.5M1006.5 379.5L973.5 412.5L940.5 412.5L907.5 412.5L874.5 412.5M1072.5 379.5L1039.5 412.5M1237.5 379.5L1204.5 412.5L1171.5 445.5L1138.5 445.5L1105.5 445.5L1072.5 445.5L1039.5 445.5L1006.5 445.5L973.5 445.5L940.5 445.5L907.5 445.5M1435.5 379.5L1402.5 412.5L1369.5 412.5L1336.5 412.5L1303.5 412.5L1270.5 412.5L1237.5 412.5M1468.5 379.5L1435.5 379.5L1402.5 379.5L1369.5 379.5L1336.5 379.5L1303.5 379.5L1270.5 379.5L1237.5 379.5L1204.5 379.5L1171.5 379.5L1138.5 379.5L1105.5 379.5L1072.5 379.5L1039.5 379.5L1006.5 379.5L973.5 379.5L940.5 379.5L907.5 379.5L874.5 379.5L841.5 379.5L808.5 379.5L775.5 379.5L742.5 379.5L709.5 379.5L676.5 379.5L643.5 412.5L610.5 445.5L577.5 478.5L544.5 478.5L511.5 478.5L478.5 478.5L445.5 478.5L412.5 478.5L379.5 478.5L346.5 478.5L313.5 478.5L280.5 478.5" stroke="url(&quot;#SvgjsRadialGradient1532&quot;)" stroke-width="5.5"></path><path d="M272.25 478.5 a8.25 8.25 0 1 0 16.5 0 a8.25 8.25 0 1 0 -16.5 0zM569.25 313.5 a8.25 8.25 0 1 0 16.5 0 a8.25 8.25 0 1 0 -16.5 0zM305.25 445.5 a8.25 8.25 0 1 0 16.5 0 a8.25 8.25 0 1 0 -16.5 0zM602.25 412.5 a8.25 8.25 0 1 0 16.5 0 a8.25 8.25 0 1 0 -16.5 0zM602.25 478.5 a8.25 8.25 0 1 0 16.5 0 a8.25 8.25 0 1 0 -16.5 0zM338.25 445.5 a8.25 8.25 0 1 0 16.5 0 a8.25 8.25 0 1 0 -16.5 0zM866.25 412.5 a8.25 8.25 0 1 0 16.5 0 a8.25 8.25 0 1 0 -16.5 0zM1031.25 412.5 a8.25 8.25 0 1 0 16.5 0 a8.25 8.25 0 1 0 -16.5 0zM899.25 445.5 a8.25 8.25 0 1 0 16.5 0 a8.25 8.25 0 1 0 -16.5 0zM1229.25 412.5 a8.25 8.25 0 1 0 16.5 0 a8.25 8.25 0 1 0 -16.5 0z" fill="url(&quot;#SvgjsRadialGradient1532&quot;)"></path></g></g><defs><mask id="SvgjsMask1531"><rect width="1440" height="560" fill="#ffffff"></rect></mask><radialGradient cx="784.8" cy="280" r="712.52" gradientUnits="userSpaceOnUse" id="SvgjsRadialGradient1532"><stop stop-color="#3a7cc3" offset="0"></stop><stop stop-color="rgba(33, 32, 41, 1)" offset="0.52"></stop><stop stop-color="rgba(25, 14, 126, 1)" offset="0.6"></stop><stop stop-color="rgba(33, 32, 41, 1)" offset="1"></stop></radialGradient><mask id="SvgjsMask1533"><rect width="1440" height="560" fill="white"></rect><path d="M1233.37 280.5 a4.13 4.13 0 1 0 8.26 0 a4.13 4.13 0 1 0 -8.26 0zM1233.37 247.5 a4.13 4.13 0 1 0 8.26 0 a4.13 4.13 0 1 0 -8.26 0z" fill="black"></path><path d="M969.37 214.5 a4.13 4.13 0 1 0 8.26 0 a4.13 4.13 0 1 0 -8.26 0zM1002.37 181.5 a4.13 4.13 0 1 0 8.26 0 a4.13 4.13 0 1 0 -8.26 0zM1035.37 115.5 a4.13 4.13 0 1 0 8.26 0 a4.13 4.13 0 1 0 -8.26 0zM936.37 247.5 a4.13 4.13 0 1 0 8.26 0 a4.13 4.13 0 1 0 -8.26 0zM1002.37 280.5 a4.13 4.13 0 1 0 8.26 0 a4.13 4.13 0 1 0 -8.26 0z" fill="black"></path><path d="M837.37 313.5 a4.13 4.13 0 1 0 8.26 0 a4.13 4.13 0 1 0 -8.26 0zM771.37 346.5 a4.13 4.13 0 1 0 8.26 0 a4.13 4.13 0 1 0 -8.26 0zM738.37 280.5 a4.13 4.13 0 1 0 8.26 0 a4.13 4.13 0 1 0 -8.26 0zM1035.37 313.5 a4.13 4.13 0 1 0 8.26 0 a4.13 4.13 0 1 0 -8.26 0zM1101.37 346.5 a4.13 4.13 0 1 0 8.26 0 a4.13 4.13 0 1 0 -8.26 0zM1167.37 346.5 a4.13 4.13 0 1 0 8.26 0 a4.13 4.13 0 1 0 -8.26 0z" fill="black"></path><path d="M1332.37 181.5 a4.13 4.13 0 1 0 8.26 0 a4.13 4.13 0 1 0 -8.26 0z" fill="black"></path><path d="M1266.37 346.5 a4.13 4.13 0 1 0 8.26 0 a4.13 4.13 0 1 0 -8.26 0z" fill="black"></path><path d="M903.37 115.5 a4.13 4.13 0 1 0 8.26 0 a4.13 4.13 0 1 0 -8.26 0zM1068.37 115.5 a4.13 4.13 0 1 0 8.26 0 a4.13 4.13 0 1 0 -8.26 0zM1233.37 82.5 a4.13 4.13 0 1 0 8.26 0 a4.13 4.13 0 1 0 -8.26 0zM1200.37 148.5 a4.13 4.13 0 1 0 8.26 0 a4.13 4.13 0 1 0 -8.26 0zM837.37 214.5 a4.13 4.13 0 1 0 8.26 0 a4.13 4.13 0 1 0 -8.26 0z" fill="black"></path><path d="M276.37 478.5 a4.13 4.13 0 1 0 8.26 0 a4.13 4.13 0 1 0 -8.26 0zM573.37 313.5 a4.13 4.13 0 1 0 8.26 0 a4.13 4.13 0 1 0 -8.26 0zM309.37 445.5 a4.13 4.13 0 1 0 8.26 0 a4.13 4.13 0 1 0 -8.26 0zM606.37 412.5 a4.13 4.13 0 1 0 8.26 0 a4.13 4.13 0 1 0 -8.26 0zM606.37 478.5 a4.13 4.13 0 1 0 8.26 0 a4.13 4.13 0 1 0 -8.26 0zM342.37 445.5 a4.13 4.13 0 1 0 8.26 0 a4.13 4.13 0 1 0 -8.26 0zM870.37 412.5 a4.13 4.13 0 1 0 8.26 0 a4.13 4.13 0 1 0 -8.26 0zM1035.37 412.5 a4.13 4.13 0 1 0 8.26 0 a4.13 4.13 0 1 0 -8.26 0zM903.37 445.5 a4.13 4.13 0 1 0 8.26 0 a4.13 4.13 0 1 0 -8.26 0zM1233.37 412.5 a4.13 4.13 0 1 0 8.26 0 a4.13 4.13 0 1 0 -8.26 0z" fill="black"></path></mask></defs></svg>